P3
25 25
255
193
144
89
195
142
86
199
157
108
200
158
112
200
156
108
181
132
82
188
142
91
192
143
91
195
148
97
194
149
100
194
147
96
201
155
104
190
141
92
202
158
109
200
156
107
188
140
87
195
143
86
201
155
102
191
145
96
200
158
109
199
155
105
198
154
108
190
143
91
200
154
102
188
139
90
197
153
104
194
142
88
202
162
117
192
145
94
199
155
106
191
144
94
191
144
92
193
147
96
195
157
114
195
154
114
198
151
102
179
134
88
190
139
89
198
154
106
193
144
90
196
151
101
196
146
91
193
147
95
195
146
93
196
148
93
196
148
96
198
147
91
192
142
88
199
150
96
192
144
94
191
141
91
189
138
83
200
155
105
189
142
92
195
152
105
193
148
100
191
144
92
195
147
93
191
152
108
198
159
117
199
152
102
198
151
102
201
160
115
188
136
84
191
140
89
194
147
96
197
146
89
196
151
100
194
145
93
197
153
103
194
145
92
193
141
86
195
145
91
194
146
94
196
150
100
190
139
86
195
150
104
193
146
98
198
153
105
202
164
122
188
138
88
196
150
100
188
137
83
192
145
97
196
150
98
193
144
94
201
155
103
195
145
93
190
138
85
187
136
84
196
149
98
197
151
99
200
154
102
198
154
105
201
158
106
194
149
101
194
145
92
192
142
88
197
152
103
196
150
102
196
150
98
196
148
96
189
142
92
192
146
99
199
154
104
195
150
100
196
150
100
191
145
96
197
152
102
195
148
97
193
145
96
199
153
102
199
152
102
188
139
88
191
143
93
196
151
102
193
143
89
200
157
109
196
147
94
193
145
96
196
149
98
186
143
99
189
142
90
194
149
100
188
137
83
199
155
106
191
140
87
194
149
100
195
147
96
197
151
101
199
155
104
193
149
102
187
139
89
192
144
96
191
142
92
198
153
106
197
151
102
199
152
103
199
156
106
187
141
93
194
147
95
193
142
85
194
147
93
193
147
99
196
151
101
195
149
99
200
154
102
196
150
97
192
146
97
186
136
86
190
146
98
191
143
94
194
150
103
193
146
94
193
150
103
200
159
110
197
155
110
186
138
89
201
156
107
188
140
92
198
153
106
197
153
106
200
153
104
195
150
101
191
147
100
192
147
97
192
144
90
197
150
95
193
144
93
194
148
102
197
152
103
198
153
102
198
155
105
183
134
86
192
146
97
196
152
103
191
145
95
199
157
110
190
141
87
194
150
98
198
156
108
193
147
96
189
141
90
198
149
97
185
138
90
187
138
89
199
152
100
200
154
104
198
152
100
192
143
90
194
149
100
189
145
98
199
154
101
197
151
99
191
143
93
186
136
85
191
142
91
195
147
93
194
150
102
199
158
112
187
138
87
200
157
111
185
139
91
191
141
88
194
148
95
196
153
103
194
149
99
190
143
92
198
151
99
192
144
93
193
146
95
198
150
96
191
144
92
195
146
91
197
148
90
194
145
92
198
151
100
193
147
93
199
154
104
188
139
87
195
149
97
190
143
93
197
151
100
195
149
98
194
149
100
190
142
92
194
150
104
194
149
101
192
146
95
197
150
95
194
151
103
188
138
86
197
154
106
196
150
101
201
159
111
193
144
92
202
158
107
201
156
105
185
136
85
195
144
86
199
152
101
199
154
104
193
146
93
194
152
104
193
146
95
196
154
107
193
147
97
192
145
95
196
151
101
192
144
92
195
148
98
195
146
96
198
157
112
194
150
100
198
155
106
188
142
93
194
150
101
194
151
105
193
145
95
201
158
109
196
150
100
195
149
97
200
154
102
198
153
101
187
137
85
197
150
100
200
156
106
196
153
106
197
154
105
197
151
99
203
160
112
190
141
89
194
146
95
194
147
97
197
152
103
193
144
94
193
147
99
196
152
102
194
149
98
195
149
98
189
145
97
194
150
98
194
151
104
191
143
92
203
162
115
197
152
102
196
150
99
195
150
100
193
147
97
197
152
101
198
153
103
192
148
100
195
150
101
193
146
99
193
144
92
202
156
106
194
146
94
193
145
92
199
154
106
194
149
102
198
150
98
197
150
99
201
156
108
193
144
89
193
145
92
200
159
108
197
153
103
201
160
116
200
161
118
197
150
98
193
144
88
199
155
105
196
151
98
194
150
101
199
153
101
187
139
89
200
158
112
201
158
107
204
160
111
189
136
82
187
135
86
197
147
97
195
146
96
194
146
94
195
148
98
186
135
84
193
148
98
192
145
92
198
155
106
192
146
96
195
149
97
196
154
104
197
153
103
190
142
89
198
152
98
202
160
114
196
149
99
193
149
99
191
141
88
194
144
92
189
140
89
199
154
102
196
149
98
195
147
96
194
143
89
207
163
115
199
148
96
197
149
98
197
149
96
201
155
104
203
167
127
194
148
95
196
156
108
196
150
98
193
148
99
186
141
94
197
154
105
199
159
113
194
148
97
196
152
100
193
149
99
184
136
87
196
148
95
190
140
86
195
147
94
197
154
105
201
157
109
198
154
104
201
155
103
195
146
90
192
138
85
196
148
99
202
157
108
191
140
89
196
148
95
190
144
95
194
146
93
193
152
105
192
146
96
199
158
113
192
147
97
196
152
103
188
139
87
205
157
102
201
153
100
208
163
111
193
145
94
192
145
96
197
150
100
194
146
93
195
150
99
188
139
88
197
151
103
195
149
100
195
142
85
194
143
91
198
152
104
201
156
108
202
158
109
194
146
95
198
155
107
201
156
107
196
146
92
192
143
91
196
150
98
192
140
82
195
148
96
198
156
108
200
157
110
196
149
96
191
145
94
194
146
93
194
146
92
194
149
99
196
151
102
197
154
106
192
144
92
192
142
89
201
157
105
199
147
91
199
155
108
206
166
124
197
150
100
204
158
110
202
164
124
193
144
93
200
155
106
192
143
92
203
166
122
196
149
97
196
147
96
195
145
91
198
152
103
198
154
105
198
157
108
203
161
114
194
146
92
191
144
93
201
155
104
202
158
110
190
143
92
196
147
92
192
142
87
195
150
103
197
148
94
204
164
118
195
145
90
205
159
109
198
154
106
193
145
93
199
152
100
199
148
93
193
140
84
199
161
117
198
157
110
195
152
103
192
139
81
195
148
94
195
154
113
188
140
86
188
138
83
192
144
91
198
153
101
179
129
81
191
147
102
193
146
94
201
155
104
199
154
108
195
147
96
196
147
95
187
137
86
206
165
118
202
155
104
196
147
95
193
144
88
202
159
111
198
154
106
195
142
86
198
158
113
196
155
108
197
151
98
194
147
94
194
149
100
203
159
108
185
137
85
202
159
109
190
141
87
198
149
97
199
154
103
199
152
100
195
147
94
195
143
87
202
157
105
193
145
95
194
148
99
194
148
101
196
151
102
194
142
85
193
145
92
195
145
91
198
149
97
186
140
95
203
168
131
197
154
104
197
152
101
196
152
104
196
149
95
201
159
109
198
153
102
192
142
91
197
149
95
197
148
96
192
143
92
199
153
101
199
156
107
200
164
122
188
141
90
204
163
114
192
146
98
197
149
97
196
147
94
199
153
97
193
146
94
188
142
97
196
149
97
200
155
104
200
155
106
199
156
108
199
152
102
195
146
93
195
146
89
193
143
89
203
160
111
190
139
85
198
149
94
194
144
91
196
149
98
194
145
90
194
145
92
192
146
99
194
146
94
194
152
107
199
165
129
188
139
89
198
152
101
198
152
101
198
152
99
192
141
88
199
151
99
196
148
96
199
153
102
193
147
101
200
158
111
198
155
108
193
149
101
197
154
104
198
151
97
187
138
89
199
152
99
199
154
103
193
150
105
191
144
92
190
142
91
199
153
103
200
154
101
194
148
99
192
142
90
189
142
94
201
157
110
192
147
98
195
148
97
194
148
99
196
147
94
199
155
105
191
145
96
195
145
90
198
152
102
201
156
104
200
159
111
193
149
100
190
143
93
196
148
92
198
154
104
194
149
101
190
143
95
202
165
121
181
134
88
199
153
103
189
140
89
199
154
102
193
142
87
193
154
109
196
159
116
194
152
106
186
137
86
198
151
97
194
152
102
198
153
105
196
151
101
198
150
96
198
153
102
200
152
98
198
150
98
187
139
90
194
150
102
196
151
99
190
139
87
195
147
98
191
141
86
199
158
111
195
149
99
193
149
101
200
157
112
203
161
113
198
149
94
181
133
86
188
146
103
189
141
91
200
163
121
188
140
91
201
159
112
197
153
104
196
149
97
189
140
89
195
147
96
